<svg width="34" height="23" viewBox="0 0 34 23" fill="none" xmlns="http://www.w3.org/2000/svg">
<path d="M33.046 1.0707C32.4417 0.384923 31.6242 0 30.7721 0C29.92 0 29.1026 0.384923 28.4983 1.0707L16.9194 14.105L5.50174 1.0707C4.89744 0.384923 4.07998 0 3.22789 0C2.37581 0 1.55835 0.384923 0.954044 1.0707C0.65174 1.41299 0.411794 1.82022 0.248048 2.26891C0.0843034 2.7176 0 3.19886 0 3.68493C0 4.171 0.0843034 4.65225 0.248048 5.10094C0.411794 5.54963 0.65174 5.95686 0.954044 6.29915L14.6294 21.9109C14.9292 22.256 15.2859 22.5299 15.679 22.7168C16.072 22.9038 16.4936 23 16.9194 23C17.3451 23 17.7667 22.9038 18.1597 22.7168C18.5528 22.5299 18.9095 22.256 19.2093 21.9109L33.046 6.29915C33.3483 5.95686 33.5882 5.54963 33.7519 5.10094C33.9157 4.65225 34 4.171 34 3.68493C34 3.19886 33.9157 2.7176 33.7519 2.26891C33.5882 1.82022 33.3483 1.41299 33.046 1.0707Z" fill="#9CC4FF"/>
</svg>
