<svg width="30" height="33" viewBox="0 0 30 33" fill="none" xmlns="http://www.w3.org/2000/svg">
<path d="M27.5489 17.3511C27.3041 17.0541 27.1691 16.6723 27.1691 16.277C27.1691 15.8816 27.3041 15.4998 27.5489 15.2028L29.5032 12.8593C29.7185 12.6032 29.8522 12.281 29.8852 11.9389C29.9181 11.5968 29.8485 11.2524 29.6864 10.9551L26.6328 5.32406C26.4723 5.02708 26.228 4.79167 25.9346 4.6514C25.6413 4.51112 25.3139 4.47314 24.9991 4.54287L22.1287 5.16131C21.7635 5.24175 21.3832 5.17691 21.0598 4.97903C20.7363 4.78115 20.492 4.46391 20.3729 4.08717L19.4415 1.1089C19.3391 0.785645 19.1439 0.504883 18.8837 0.306294C18.6234 0.107704 18.3111 0.00133257 17.991 0.0022133H11.8838C11.5509 -0.0163107 11.2214 0.0818397 10.9457 0.281674C10.67 0.481507 10.4632 0.77204 10.357 1.1089L9.502 4.08717C9.38291 4.46391 9.13858 4.78115 8.81511 4.97903C8.49164 5.17691 8.11141 5.24175 7.74618 5.16131L4.79944 4.54287C4.50103 4.49792 4.19681 4.54811 3.92511 4.68713C3.65341 4.82614 3.42639 5.04776 3.27263 5.32406L0.219022 10.9551C0.0528443 11.2491 -0.0218745 11.5916 0.00554772 11.9336C0.0329699 12.2756 0.161129 12.5996 0.371702 12.8593L2.31075 15.2028C2.55552 15.4998 2.69052 15.8816 2.69052 16.277C2.69052 16.6723 2.55552 17.0541 2.31075 17.3511L0.371702 19.6947C0.161129 19.9543 0.0329699 20.2783 0.00554772 20.6203C-0.0218745 20.9623 0.0528443 21.3048 0.219022 21.5988L3.27263 27.2299C3.4331 27.5268 3.67742 27.7623 3.97077 27.9025C4.26412 28.0428 4.59153 28.0808 4.90632 28.0111L7.77671 27.3926C8.14195 27.3122 8.52218 27.377 8.84565 27.5749C9.16912 27.7728 9.41345 28.09 9.53254 28.4667L10.4639 31.445C10.5701 31.7819 10.7769 32.0724 11.0526 32.2722C11.3283 32.4721 11.6578 32.5702 11.9907 32.5517H18.0979C18.418 32.5526 18.7303 32.4462 18.9905 32.2476C19.2508 32.049 19.446 31.7683 19.5484 31.445L20.4797 28.4667C20.5988 28.09 20.8432 27.7728 21.1666 27.5749C21.4901 27.377 21.8703 27.3122 22.2356 27.3926L25.106 28.0111C25.4208 28.0808 25.7482 28.0428 26.0415 27.9025C26.3349 27.7623 26.5792 27.5268 26.7396 27.2299L29.7933 21.5988C29.9554 21.3015 30.025 20.9571 29.992 20.615C29.9591 20.2729 29.8254 19.9507 29.61 19.6947L27.5489 17.3511ZM25.2739 19.5319L26.4954 20.9966L24.541 24.6096L22.7394 24.219C21.6398 23.9794 20.4959 24.1785 19.5249 24.7786C18.5539 25.3786 17.8233 26.3377 17.4719 27.474L16.8917 29.2968H12.9831L12.4335 27.4414C12.0821 26.3052 11.3515 25.346 10.3805 24.746C9.40952 24.146 8.26563 23.9469 7.16599 24.1865L5.36436 24.5771L3.37951 20.9804L4.60096 19.5156C5.35208 18.6205 5.76733 17.4617 5.76733 16.2607C5.76733 15.0597 5.35208 13.9009 4.60096 13.0057L3.37951 11.541L5.33382 7.96056L7.13545 8.35116C8.23509 8.59076 9.37899 8.39165 10.35 7.79163C11.321 7.19161 12.0515 6.23244 12.4029 5.09621L12.9831 3.25716H16.8917L17.4719 5.11248C17.8233 6.24872 18.5539 7.20788 19.5249 7.8079C20.4959 8.40793 21.6398 8.60703 22.7394 8.36743L24.541 7.97684L26.4954 11.5898L25.2739 13.0546C24.5312 13.9477 24.1211 15.0998 24.1211 16.2932C24.1211 17.4867 24.5312 18.6388 25.2739 19.5319ZM14.9374 9.76706C13.7295 9.76706 12.5488 10.1489 11.5444 10.8642C10.5401 11.5795 9.75733 12.5962 9.29509 13.7857C8.83285 14.9753 8.71191 16.2842 8.94756 17.547C9.18321 18.8098 9.76486 19.9697 10.619 20.8802C11.4731 21.7906 12.5613 22.4106 13.746 22.6618C14.9307 22.913 16.1586 22.784 17.2746 22.2913C18.3905 21.7986 19.3443 20.9642 20.0154 19.8937C20.6865 18.8231 21.0447 17.5645 21.0447 16.277C21.0447 14.5504 20.4012 12.8946 19.2559 11.6738C18.1106 10.4529 16.5572 9.76706 14.9374 9.76706ZM14.9374 19.5319C14.3335 19.5319 13.7431 19.341 13.2409 18.9834C12.7388 18.6257 12.3474 18.1173 12.1163 17.5226C11.8851 16.9278 11.8247 16.2733 11.9425 15.642C12.0603 15.0106 12.3511 14.4306 12.7782 13.9754C13.2053 13.5202 13.7494 13.2101 14.3417 13.0846C14.934 12.959 15.548 13.0234 16.106 13.2698C16.664 13.5161 17.1409 13.9333 17.4764 14.4686C17.812 15.0039 17.991 15.6332 17.991 16.277C17.991 17.1402 17.6693 17.9681 17.0967 18.5786C16.524 19.189 15.7473 19.5319 14.9374 19.5319Z" fill="#FBF6F6"/>
</svg>
