<svg width="30" height="30" viewBox="0 0 30 30" fill="none" xmlns="http://www.w3.org/2000/svg">
<path d="M29.5788 27.2951L24.0171 21.8095C26.1759 19.1329 27.2214 15.7355 26.9386 12.316C26.6557 8.89647 25.066 5.71466 22.4963 3.42482C19.9266 1.13499 16.5722 -0.0888267 13.1229 0.00502491C9.67366 0.0988765 6.39163 1.50326 3.95171 3.9294C1.51179 6.35555 0.0994379 9.61904 0.00505344 13.0488C-0.0893311 16.4786 1.14143 19.8141 3.44427 22.3692C5.74711 24.9244 8.94698 26.5052 12.3859 26.7865C15.8249 27.0677 19.2415 26.0282 21.9333 23.8815L27.45 29.3671C27.5894 29.5068 27.7552 29.6177 27.9379 29.6933C28.1206 29.769 28.3165 29.808 28.5144 29.808C28.7123 29.808 28.9082 29.769 29.0909 29.6933C29.2736 29.6177 29.4394 29.5068 29.5788 29.3671C29.849 29.0891 30 28.7176 30 28.3311C30 27.9445 29.849 27.573 29.5788 27.2951ZM13.5233 23.8815C11.4478 23.8815 9.41898 23.2695 7.69329 22.1229C5.9676 20.9764 4.62259 19.3467 3.82834 17.4401C3.03409 15.5334 2.82628 13.4354 3.23118 11.4113C3.63609 9.38719 4.63552 7.52794 6.1031 6.06865C7.57068 4.60935 9.44049 3.61556 11.4761 3.21294C13.5117 2.81032 15.6216 3.01696 17.5391 3.80673C19.4566 4.59649 21.0955 5.93391 22.2486 7.64986C23.4016 9.3658 24.0171 11.3832 24.0171 13.447C24.0171 16.2144 22.9115 18.8684 20.9435 20.8253C18.9756 22.7821 16.3064 23.8815 13.5233 23.8815Z" fill="#F9F2F2"/>
</svg>
